<svg xmlns="http://www.w3.org/2000/svg" xmlns:xlink="http://www.w3.org/1999/xlink" viewBox="0,0,256,256" width="100px" height="100px" fill-rule="nonzero"><g fill="#ffffff" fill-rule="nonzero" stroke="none" stroke-width="1" stroke-linecap="butt" stroke-linejoin="miter" stroke-miterlimit="10" stroke-dasharray="" stroke-dashoffset="0" font-family="none" font-weight="none" font-size="none" text-anchor="none" style="mix-blend-mode: normal"><g transform="scale(2.56,2.56)"><path d="M46,13c-1.64497,0 -3,1.35503 -3,3v2h-10.73437c-1.7547,0 -3.38611,0.92281 -4.28906,2.42773l-1.54297,2.57227h-3.43359c-2.19733,0 -4,1.80267 -4,4c0,2.19733 1.80267,4 4,4h1.07422l3.57422,46.45898c0.23929,3.11679 2.85609,5.54102 5.98242,5.54102h32.73828c3.12633,0 5.74313,-2.42423 5.98242,-5.54102l3.57422,-46.45898h1.07422c2.19733,0 4,-1.80267 4,-4c0,-2.19733 -1.80267,-4 -4,-4h-3.43359l-1.54297,-2.57227c-0.90296,-1.50492 -2.53436,-2.42773 -4.28906,-2.42773h-10.73437v-2c0,-1.64497 -1.35503,-3 -3,-3zM46,15h8c0.56503,0 1,0.43497 1,1v2h-10v-2c0,-0.56503 0.43497,-1 1,-1zM32.26563,20h11.56641c0.10799,0.01785 0.21818,0.01785 0.32617,0h11.67383c0.10799,0.01785 0.21818,0.01785 0.32617,0h11.57617c1.0553,0 2.02922,0.55195 2.57227,1.45703l1.52734,2.54297h-3.33398c-0.18032,-0.00255 -0.34804,0.09219 -0.43894,0.24794c-0.0909,0.15575 -0.0909,0.34838 0,0.50413c0.0909,0.15575 0.25863,0.25049 0.43894,0.24794h5h3.5c1.11667,0 2,0.88333 2,2c0,1.11667 -0.88333,2 -2,2h-54c-1.11667,0 -2,-0.88333 -2,-2c0,-1.11667 0.88333,-2 2,-2h4h34.5c0.18032,0.00255 0.34804,-0.09219 0.43894,-0.24794c0.0909,-0.15575 0.0909,-0.34838 0,-0.50413c-0.0909,-0.15575 -0.25863,-0.25049 -0.43894,-0.24794h-33.33398l1.52734,-2.54297c0.54305,-0.90508 1.51697,-1.45703 2.57227,-1.45703zM64.5,24c-0.18032,-0.00255 -0.34804,0.09219 -0.43894,0.24794c-0.0909,0.15575 -0.0909,0.34838 0,0.50413c0.0909,0.15575 0.25863,0.25049 0.43894,0.24794h2c0.18032,0.00255 0.34804,-0.09219 0.43894,-0.24794c0.0909,-0.15575 0.0909,-0.34838 0,-0.50413c-0.0909,-0.15575 -0.25863,-0.25049 -0.43894,-0.24794zM26.07813,31h47.84375l-3.56445,46.30664c-0.16071,2.09321 -1.88861,3.69336 -3.98828,3.69336h-32.73828c-2.09967,0 -3.82757,-1.60015 -3.98828,-3.69336zM38,35c-1.65109,0 -3,1.34891 -3,3v35c0,1.65109 1.34891,3 3,3c1.65109,0 3,-1.34891 3,-3v-35c0,-1.65109 -1.34891,-3 -3,-3zM50,35c-1.65109,0 -3,1.34891 -3,3v35c0,1.65109 1.34891,3 3,3c1.65109,0 3,-1.34891 3,-3v-3.5c0.00255,-0.18032 -0.09219,-0.34804 -0.24794,-0.43894c-0.15575,-0.0909 -0.34838,-0.0909 -0.50413,0c-0.15575,0.0909 -0.25049,0.25863 -0.24794,0.43894v3.5c0,1.11091 -0.88909,2 -2,2c-1.11091,0 -2,-0.88909 -2,-2v-35c0,-1.11091 0.88909,-2 2,-2c1.11091,0 2,0.88909 2,2v25.5c-0.00255,0.18032 0.09219,0.34804 0.24794,0.43894c0.15575,0.0909 0.34838,0.0909 0.50413,0c0.15575,-0.0909 0.25049,-0.25863 0.24794,-0.43894v-25.5c0,-1.65109 -1.34891,-3 -3,-3zM62,35c-1.65109,0 -3,1.34891 -3,3v1.5c-0.00255,0.18032 0.09219,0.34804 0.24794,0.43894c0.15575,0.0909 0.34838,0.0909 0.50413,0c0.15575,-0.0909 0.25049,-0.25863 0.24794,-0.43894v-1.5c0,-1.11091 0.88909,-2 2,-2c1.11091,0 2,0.88909 2,2v35c0,1.11091 -0.88909,2 -2,2c-1.11091,0 -2,-0.88909 -2,-2v-25.5c0.00255,-0.18032 -0.09219,-0.34804 -0.24794,-0.43894c-0.15575,-0.0909 -0.34838,-0.0909 -0.50413,0c-0.15575,0.0909 -0.25049,0.25863 -0.24794,0.43894v25.5c0,1.65109 1.34891,3 3,3c1.65109,0 3,-1.34891 3,-3v-35c0,-1.65109 -1.34891,-3 -3,-3zM38,36c1.11091,0 2,0.88909 2,2v35c0,1.11091 -0.88909,2 -2,2c-1.11091,0 -2,-0.88909 -2,-2v-35c0,-1.11091 0.88909,-2 2,-2zM59.49219,41.99219c-0.13261,0.00207 -0.25896,0.05673 -0.35127,0.15197c-0.0923,0.09523 -0.14299,0.22324 -0.14092,0.35584v2c-0.00255,0.18032 0.09219,0.34804 0.24794,0.43894c0.15575,0.0909 0.34838,0.0909 0.50413,0c0.15575,-0.0909 0.25049,-0.25863 0.24794,-0.43894v-2c0.00212,-0.13532 -0.0507,-0.26572 -0.1464,-0.36141c-0.0957,-0.0957 -0.22609,-0.14852 -0.36141,-0.1464z"></path></g></g></svg>